<svg width="24" height="24" viewBox="0 0 24 24" fill="none" xmlns="http://www.w3.org/2000/svg">
<path fill-rule="evenodd" clip-rule="evenodd" d="M9.66479 4.82812C9.57252 4.82812 9.49771 4.90293 9.49771 4.99521V6.49646H14.5015V4.99521C14.5015 4.90293 14.4267 4.82812 14.3344 4.82812H9.66479ZM8.49771 4.99521V6.49646H4.32812V7.49646H5.54568L6.70664 18.5285L6.70665 18.5286C6.80479 19.4622 7.59199 20.171 8.53072 20.171H15.4684H15.4687C16.407 20.1706 17.1937 19.4619 17.2918 18.5287L17.2918 18.5285L18.4534 7.49646H19.671V6.49646H15.5015V4.99521C15.5015 4.35065 14.9789 3.82812 14.3344 3.82812H9.66479C9.02023 3.82812 8.49771 4.35065 8.49771 4.99521ZM17.4479 7.49646H6.5512L7.70116 18.424L7.70117 18.424C7.74578 18.8487 8.1038 19.171 8.53075 19.171H15.4681C15.8949 19.1708 16.2527 18.8485 16.2973 18.424L16.2973 18.4239L17.4479 7.49646ZM11.4996 9.99834V17.0027H12.4996V9.99834H11.4996ZM14.1685 16.9789L14.502 9.97455L15.5009 10.0221L15.1673 17.0265L14.1685 16.9789ZM8.49828 10.0221L8.83182 17.0265L9.83069 16.9789L9.49715 9.97455L8.49828 10.0221Z" fill="black"/>
</svg>
