<svg width="30" height="30" viewBox="0 0 30 30" fill="none" xmlns="http://www.w3.org/2000/svg">
<rect width="30" height="30" fill="white"/>
<path d="M23.4543 15C23.3042 16.3177 22.5196 17.5918 21.1544 18.6111C19.6284 19.7506 17.4506 20.5 14.9808 20.5C12.511 20.5 10.3332 19.7506 8.80715 18.6111C7.44197 17.5918 6.6574 16.3177 6.50732 15L5 15C5.32262 18.9063 9.66784 22 14.9808 22C20.2937 22 24.6389 18.9063 24.9616 15L23.4543 15Z" fill="#010101"/>
<path fill-rule="evenodd" clip-rule="evenodd" d="M5.49999 22.4641L7.49999 19L8.79903 19.75L6.79903 23.2141L5.49999 22.4641Z" fill="#010101"/>
<path fill-rule="evenodd" clip-rule="evenodd" d="M23 19L25 22.4641L23.701 23.2141L21.701 19.75L23 19Z" fill="#010101"/>
<path fill-rule="evenodd" clip-rule="evenodd" d="M11.3867 24.8921L12.0809 20.9528L13.5582 21.2131L12.8639 25.1524L11.3867 24.8921Z" fill="#010101"/>
<path fill-rule="evenodd" clip-rule="evenodd" d="M18 21L18.6939 24.9394L17.2166 25.1996L16.5227 21.2602L18 21Z" fill="#010101"/>
</svg>
