<svg width="30" height="30" viewBox="0 0 30 30" fill="none" xmlns="http://www.w3.org/2000/svg">
<rect width="30" height="30" fill="white"/>
<path fill-rule="evenodd" clip-rule="evenodd" d="M15 16.5C15.8284 16.5 16.5 15.8284 16.5 15C16.5 14.1716 15.8284 13.5 15 13.5C14.1716 13.5 13.5 14.1716 13.5 15C13.5 15.8284 14.1716 16.5 15 16.5ZM15 18C16.6568 18 18 16.6569 18 15C18 13.3431 16.6568 12 15 12C13.3431 12 12 13.3431 12 15C12 16.6569 13.3431 18 15 18Z" fill="#010101"/>
<path d="M23.4543 15C23.3042 16.3177 22.5196 17.5918 21.1544 18.6111C19.6284 19.7506 17.4506 20.5 14.9808 20.5C12.511 20.5 10.3332 19.7506 8.80715 18.6111C7.44197 17.5918 6.6574 16.3177 6.50732 15L5 15C5.32262 18.9063 9.66784 22 14.9808 22C20.2937 22 24.6389 18.9063 24.9616 15H23.4543Z" fill="#010101"/>
<path d="M6.50732 15C6.6574 13.6823 7.44194 12.4082 8.80713 11.3889C10.3332 10.2494 12.511 9.5 14.9808 9.5C17.4506 9.5 19.6283 10.2494 21.1544 11.3889C22.5196 12.4082 23.3042 13.6823 23.4543 15H24.9616C24.639 11.0937 20.2937 8 14.9808 8C9.66782 8 5.32262 11.0937 5 15L6.50732 15Z" fill="#010101"/>
</svg>
