<svg version="1.1" xmlns="http://www.w3.org/2000/svg" xmlns:xlink="http://www.w3.org/1999/xlink" x="0px" y="0px"
	 viewBox="0 0 24 24" enable-background="new 0 0 24 24" xml:space="preserve">
<path fill="#FFFFFF" stroke="#000000" stroke-width="1.2" stroke-miterlimit="10" d="M11.6,6.9c-0.4-0.5-1.3-1.3-2.7-1.8
	C8.4,4.9,7.8,4.7,7,4.8C5.3,4.9,3.8,6,3,7.5C2.5,8.7,2.6,9.8,2.6,10c0.1,1.4,0.9,2.3,1.2,2.6l7.8,7.9c2.6-2.6,5.2-5.2,7.8-7.7
	c0.3-0.3,1.3-1.7,1.2-3.6c0-0.4-0.1-1.1-0.6-2c-0.9-1.5-2.6-2.6-4.3-2.5c-0.5,0-0.9,0.2-1.3,0.3C13.1,5.5,12.2,6.3,11.6,6.9z"/>
</svg>
