<svg width="33" height="16" viewBox="0 0 33 15" fill="none" xmlns="http://www.w3.org/2000/svg">
<path d="M2.55664 13.834C2.32878 14.0488 2.04232 14.1562 1.69727 14.1562C1.35221 14.1562 1.06576 14.0488 0.837891 13.834C0.610026 13.6191 0.496094 13.3424 0.496094 13.0039C0.496094 12.6654 0.610026 12.3887 0.837891 12.1738C1.06576 11.9525 1.35221 11.8418 1.69727 11.8418C2.04232 11.8418 2.32878 11.9525 2.55664 12.1738C2.78451 12.3887 2.89844 12.6654 2.89844 13.0039C2.89844 13.3424 2.78451 13.6191 2.55664 13.834ZM7.77148 7.87695V14H6.05273V-0.00390625H16.7754V1.55859H7.77148V6.32422H15.7793V7.87695H7.77148ZM20.1348 14V-0.00390625H27.2539C28.5625 -0.00390625 29.6302 0.328125 30.457 0.992188C31.2839 1.65625 31.6973 2.52539 31.6973 3.59961C31.6973 4.88216 31.069 5.89453 29.8125 6.63672V6.72461C30.4961 7.00456 31.0462 7.4668 31.4629 8.11133C31.8861 8.75586 32.0977 9.46549 32.0977 10.2402C32.0977 11.334 31.7038 12.2357 30.916 12.9453C30.1283 13.6484 29.0671 14 27.7324 14H20.1348ZM21.8535 6.08008H27.2539C28.0872 6.08008 28.748 5.875 29.2363 5.46484C29.7311 5.05469 29.9785 4.50781 29.9785 3.82422C29.9785 3.14062 29.7311 2.59375 29.2363 2.18359C28.748 1.76693 28.0872 1.55859 27.2539 1.55859H21.8535V6.08008ZM21.8535 12.4375H27.5371C28.4486 12.4375 29.1484 12.2161 29.6367 11.7734C30.1315 11.3242 30.3789 10.7448 30.3789 10.0352C30.3789 9.31901 30.1217 8.74284 29.6074 8.30664C29.0931 7.86393 28.377 7.64258 27.459 7.64258H21.8535V12.4375Z" fill="#010101"/>
</svg>
