<svg width="49" height="30" viewBox="0 0 49 30" fill="none" xmlns="http://www.w3.org/2000/svg">
<path d="M3.84375 29.3516C2.95833 29.3516 2.23568 29.0911 1.67578 28.5703C1.11589 28.0365 0.835938 27.3268 0.835938 26.4414C0.835938 25.569 1.11589 24.8724 1.67578 24.3516C2.23568 23.8177 2.95833 23.5508 3.84375 23.5508C4.74219 23.5508 5.46484 23.8177 6.01172 24.3516C6.55859 24.8724 6.83203 25.569 6.83203 26.4414C6.83203 27.3398 6.55859 28.0495 6.01172 28.5703C5.46484 29.0911 4.74219 29.3516 3.84375 29.3516ZM11.1203 29V0.992188H15.9641V29H11.1203ZM34.8422 29.5273C32.837 29.5273 30.9685 29.1758 29.2367 28.4727C27.5049 27.7565 26.0141 26.7734 24.7641 25.5234C23.5141 24.2604 22.531 22.724 21.8148 20.9141C21.1117 19.0911 20.7602 17.1185 20.7602 14.9961C20.7602 12.1576 21.3721 9.63802 22.5961 7.4375C23.8201 5.22396 25.5128 3.51172 27.6742 2.30078C29.8357 1.08984 32.2771 0.484375 34.9984 0.484375C38.3057 0.484375 41.1313 1.35677 43.475 3.10156C45.8188 4.84635 47.4594 7.22266 48.3969 10.2305H43.1625C42.4073 8.53776 41.3396 7.22917 39.9594 6.30469C38.5792 5.38021 36.9255 4.91797 34.9984 4.91797C32.225 4.91797 29.9724 5.84896 28.2406 7.71094C26.5089 9.57292 25.643 12.0013 25.643 14.9961C25.643 18.0039 26.5219 20.4388 28.2797 22.3008C30.0505 24.1497 32.3813 25.0742 35.2719 25.0742C37.6547 25.0742 39.6729 24.4232 41.3266 23.1211C42.9932 21.819 44.0154 20.0872 44.393 17.9258H34.432V13.8047H48.6703V29H44.5492V24.9961H44.393C43.3904 26.4935 42.0622 27.6263 40.4086 28.3945C38.768 29.1497 36.9125 29.5273 34.8422 29.5273Z" fill="#010101"/>
</svg>
