<svg width="26" height="16" viewBox="0 0 26 16" fill="none" xmlns="http://www.w3.org/2000/svg">
<path d="M2.55664 14.834C2.32878 15.0488 2.04232 15.1562 1.69727 15.1562C1.35221 15.1562 1.06576 15.0488 0.837891 14.834C0.610026 14.6191 0.496094 14.3424 0.496094 14.0039C0.496094 13.6654 0.610026 13.3887 0.837891 13.1738C1.06576 12.9525 1.35221 12.8418 1.69727 12.8418C2.04232 12.8418 2.32878 12.9525 2.55664 13.1738C2.78451 13.3887 2.89844 13.6654 2.89844 14.0039C2.89844 14.3424 2.78451 14.6191 2.55664 14.834ZM6.05273 15V0.996094H7.77148V15H6.05273ZM18.3281 15.2441C17.319 15.2441 16.3783 15.0618 15.5059 14.6973C14.6335 14.3327 13.888 13.8346 13.2695 13.2031C12.651 12.5651 12.166 11.7969 11.8145 10.8984C11.4629 10 11.2871 9.0332 11.2871 7.99805C11.2871 6.61784 11.5866 5.3776 12.1855 4.27734C12.791 3.17057 13.6309 2.30794 14.7051 1.68945C15.7793 1.07096 16.987 0.761719 18.3281 0.761719C19.9362 0.761719 21.3197 1.20443 22.4785 2.08984C23.6439 2.96875 24.4609 4.15365 24.9297 5.64453H23.1328C22.7031 4.59635 22.0781 3.78255 21.2578 3.20312C20.444 2.61719 19.4674 2.32422 18.3281 2.32422C16.7852 2.32422 15.5124 2.85807 14.5098 3.92578C13.5072 4.98698 13.0059 6.3444 13.0059 7.99805C13.0059 9.6582 13.5104 11.0221 14.5195 12.0898C15.5286 13.151 16.8242 13.6816 18.4062 13.6816C19.7799 13.6816 20.9193 13.2747 21.8242 12.4609C22.7357 11.6406 23.263 10.5664 23.4062 9.23828H18.0449V7.67578H25.0469V15H23.4941V12.5977H23.4062C22.9245 13.4701 22.2344 14.1309 21.3359 14.5801C20.444 15.0228 19.4414 15.2441 18.3281 15.2441Z" fill="#010101"/>
</svg>
