<svg width="14" height="32" viewBox="0 0 14 32" fill="none" xmlns="http://www.w3.org/2000/svg">
<path d="M9.48992 11.3328L8.35315 8.67651H2.8417L1.70451 11.3328H0L4.80263 0.132812H6.39737L11.2 11.3328H9.48992ZM7.75282 7.20542L5.6208 2.27601H5.55819L3.4416 7.20455L7.75282 7.20542Z" fill="#010101"/>
<path d="M4.72266 22.1701H0V20.666H11.2V22.1701H6.47688V31.866H4.72266V22.1701Z" fill="#010101"/>
<path d="M13.0735 31.8667C12.7969 31.8667 12.571 31.7804 12.3956 31.6079C12.2201 31.4353 12.1326 31.2105 12.1328 30.9335C12.1328 30.656 12.2204 30.4311 12.3956 30.2588C12.5707 30.0865 12.7967 30.0003 13.0735 30C13.3407 30 13.5618 30.0863 13.7367 30.2588C13.9116 30.4314 13.9992 30.6563 13.9995 30.9335C13.9995 31.2111 13.9119 31.4358 13.7367 31.6079C13.5616 31.7799 13.3405 31.8661 13.0735 31.8667Z" fill="#010101"/>
</svg>
