<svg width="232" height="10" viewBox="0 0 232 10" fill="none" xmlns="http://www.w3.org/2000/svg">
<path d="M8.51072 9.99187L7.62686 7.86627H2.99372L2.10985 9.99187H0L4.16269 0.00585938H6.44362L10.6063 9.99187H8.51072ZM6.91407 6.09161L5.33166 2.32546H5.27465L3.70651 6.09161H6.91407Z" fill="#010101"/>
<path d="M15.2109 0.00585938H17.2068V8.13732H23.351V9.99187H15.2252L15.2109 0.00585938Z" fill="#010101"/>
<path d="M30.2511 8.20865H36.4239V9.99187H28.2695V0.00585938H36.4239V1.78908H30.2511V3.98599H35.7966V5.71215H30.2511V8.20865Z" fill="#010101"/>
<path d="M44.8334 4.94961L40.9273 0.0136719H43.3366L46.0452 3.42318L48.7395 0.0136719H51.1487L47.2426 4.94961L51.2343 9.99968H48.8251L46.0452 6.47604L43.251 9.99968H40.8418L44.8334 4.94961Z" fill="#010101"/>
<path d="M63.497 9.99187L62.6132 7.86627H57.9801L57.0962 9.99187H54.9863L59.149 0.00585938H61.43L65.5927 9.99187H63.497ZM61.9004 6.09161L60.318 2.32546H60.261L58.6928 6.09161H61.9004Z" fill="#010101"/>
<path d="M79.4046 9.99187H76.9383L72.2339 2.93033H72.1769V9.99187H70.1953V0.00585938H72.6473L77.366 7.06739H77.423V0.00585938H79.4046V9.99187Z" fill="#010101"/>
<path d="M84.9941 0.00515924H89.1283C89.8199 -0.00156243 90.5072 0.114349 91.1584 0.347531C91.7595 0.5619 92.3106 0.896857 92.7778 1.33187C93.2421 1.77257 93.6066 2.30764 93.847 2.9011C94.3603 4.25196 94.3603 5.74436 93.847 7.09522C93.6073 7.68905 93.2427 8.22427 92.7778 8.66445C92.3106 9.09946 91.7595 9.43442 91.1584 9.64878C90.5072 9.88197 89.8199 9.99789 89.1283 9.99117H84.9941V0.00515924ZM89.1426 8.20795C89.5702 8.2127 89.9952 8.14021 90.3971 7.99396C90.766 7.85805 91.1028 7.64725 91.3864 7.37483C91.675 7.09145 91.8971 6.74744 92.0365 6.36767C92.3406 5.48002 92.3406 4.51629 92.0365 3.62865C91.897 3.24973 91.675 2.90666 91.3864 2.62434C91.1031 2.35089 90.7663 2.13912 90.3971 2.00236C89.9952 1.85611 89.5702 1.78362 89.1426 1.78837H86.9757V8.20795H89.1426Z" fill="#010101"/>
<path d="M104.222 6.45415H101.371V9.99206H99.375V0.0060516H105.077C105.551 0.0016188 106.023 0.0738785 106.474 0.220038C106.883 0.35295 107.261 0.566365 107.586 0.847724C107.902 1.12767 108.152 1.47342 108.319 1.8606C108.503 2.29342 108.593 2.76004 108.584 3.2301C108.614 3.94427 108.392 4.64625 107.957 5.21304C107.532 5.73175 106.953 6.1015 106.303 6.2687L108.484 9.99206H106.289L104.222 6.45415ZM105.077 4.67094C105.283 4.68554 105.49 4.65901 105.686 4.59289C105.882 4.52676 106.063 4.42237 106.218 4.28577C106.475 3.99432 106.617 3.61891 106.617 3.2301C106.617 2.8413 106.475 2.46588 106.218 2.17444C106.063 2.03783 105.882 1.93344 105.686 1.86732C105.49 1.8012 105.283 1.77466 105.077 1.78927H101.371V4.66523L105.077 4.67094Z" fill="#010101"/>
<path d="M120.96 9.99187L120.076 7.86627H115.443L114.559 9.99187H112.449L116.609 0.00585938H118.921L123.084 9.99187H120.96ZM119.363 6.09161L117.781 2.33117H117.724L116.156 6.09161H119.363Z" fill="#010101"/>
<path d="M137.651 1.81175H133.816V0H143.468V1.81175H139.633V9.98601H137.637L137.651 1.81175Z" fill="#010101"/>
<path d="M154.688 9.99187L153.805 7.86627H149.171L148.288 9.99187H146.178L150.34 0.00585938H152.638L156.798 9.99187H154.688ZM153.092 6.09732L151.509 2.33117H151.452L149.884 6.09732H153.092Z" fill="#010101"/>
<path d="M161.387 0.00585938H163.383V8.13732H169.527V9.99187H161.401L161.387 0.00585938Z" fill="#010101"/>
<path d="M181.985 9.99187L181.101 7.86627H176.468L175.584 9.99187H173.475L177.637 0.00585938H179.918L184.081 9.99187H181.985ZM180.389 6.09732L178.806 2.33117H178.749L177.181 6.09732H180.389Z" fill="#010101"/>
<path d="M188.688 0.00585938H190.683V8.13732H196.828V9.99187H188.702L188.688 0.00585938Z" fill="#010101"/>
<path d="M209.288 9.99187L208.404 7.86627H203.771L202.887 9.99187H200.777L204.94 0.00585938H207.221L211.384 9.99187H209.288ZM207.691 6.09732L206.109 2.33117H206.052L204.484 6.09732H207.691Z" fill="#010101"/>
<path d="M217.356 5.96893L213.051 0.00585938H215.374L218.34 4.11439L221.305 0.00585938H223.629L219.323 5.96893V9.99187H217.356V5.96893Z" fill="#010101"/>
<path d="M230.185 2.09662L229.972 1.60302H228.937L228.723 2.09662H228.406L229.307 0.0195312H229.592L230.493 2.09662H230.185ZM229.857 1.33198L229.458 0.41897L229.062 1.33198H229.857Z" fill="#010101"/>
<path d="M229.3 3.84586H228.471V3.56055H230.441V3.84586H229.611V5.64334H229.3V3.84586Z" fill="#010101"/>
<path d="M230.804 5.66566C230.778 5.66697 230.751 5.66283 230.726 5.65351C230.701 5.64419 230.678 5.62988 230.659 5.61145C230.64 5.59393 230.624 5.57226 230.614 5.54806C230.605 5.52385 230.6 5.49774 230.602 5.47164C230.601 5.4456 230.605 5.41961 230.615 5.39547C230.625 5.37132 230.64 5.34961 230.659 5.33184C230.699 5.29647 230.751 5.27805 230.804 5.28049C230.856 5.27864 230.906 5.29708 230.944 5.33184C230.963 5.34961 230.978 5.37132 230.988 5.39547C230.998 5.41961 231.002 5.4456 231.001 5.47164C231.003 5.49774 230.998 5.52385 230.988 5.54806C230.979 5.57226 230.963 5.59393 230.944 5.61145C230.926 5.62958 230.904 5.64375 230.88 5.65307C230.856 5.6624 230.83 5.66669 230.804 5.66566Z" fill="#010101"/>
</svg>
