<svg width="1017" height="45" viewBox="0 0 1017 45" fill="none" xmlns="http://www.w3.org/2000/svg">
<path d="M37.469 43.9899L33.5778 34.6319H13.1801L9.28876 43.9899H0L18.3265 0.0258789H28.3685L46.695 43.9899H37.469ZM30.4397 26.8188L23.473 10.2381H23.222L16.3182 26.8188H30.4397Z" fill="white"/>
<path d="M66.9668 0.0244141H75.7535V35.8237H102.804V43.9885H67.0295L66.9668 0.0244141Z" fill="white"/>
<path d="M133.181 36.1377H160.357V43.9885H124.457V0.0244141H160.357V7.87514H133.181V17.5472H157.596V25.1467H133.181V36.1377Z" fill="white"/>
<path d="M197.382 21.7918L180.185 0.0610352H190.792L202.717 15.0716L214.579 0.0610352H225.186L207.989 21.7918L225.562 44.0251H214.955L202.717 28.5121L190.415 44.0251H179.809L197.382 21.7918Z" fill="white"/>
<path d="M279.549 43.989L275.658 34.6309H255.26L251.369 43.989H242.08L260.407 0.0249023H270.449L288.775 43.989H279.549ZM272.52 26.8178L265.553 10.2371H265.302L258.398 26.8178H272.52Z" fill="white"/>
<path d="M349.583 43.9875H338.726L318.014 12.8986H317.763V43.9875H309.039V0.0234375H319.834L340.608 31.1123H340.86V0.0234375H349.583V43.9875Z" fill="white"/>
<path d="M374.191 0.0236779H392.392C395.437 -0.00591467 398.463 0.504392 401.33 1.53099C403.976 2.47476 406.403 3.94944 408.46 5.86461C410.503 7.80483 412.108 10.1605 413.167 12.7732C415.427 18.7205 415.427 25.2909 413.167 31.2381C412.112 33.8525 410.506 36.2088 408.46 38.1468C406.403 40.0619 403.976 41.5366 401.33 42.4804C398.463 43.507 395.437 44.0173 392.392 43.9877H374.191V0.0236779ZM392.455 36.137C394.338 36.1579 396.209 35.8388 397.978 35.1949C399.602 34.5965 401.085 33.6685 402.334 32.4691C403.604 31.2215 404.582 29.707 405.196 28.035C406.535 24.1271 406.535 19.8842 405.196 15.9763C404.582 14.3081 403.604 12.7977 402.334 11.5548C401.087 10.3509 399.604 9.41859 397.978 8.81649C396.209 8.17262 394.338 7.85348 392.455 7.8744H382.915V36.137H392.455Z" fill="white"/>
<path d="M458.845 28.4125H446.293V43.9884H437.506V0.0242838H462.611C464.698 0.00476809 466.775 0.322896 468.761 0.966371C470.561 1.55153 472.226 2.4911 473.657 3.7298C475.045 4.96229 476.146 6.48447 476.883 8.18904C477.691 10.0946 478.088 12.1489 478.05 14.2184C478.182 17.3626 477.205 20.4531 475.289 22.9484C473.417 25.2321 470.867 26.8599 468.008 27.596L477.611 43.9884H467.946L458.845 28.4125ZM462.611 20.5618C463.518 20.626 464.429 20.5092 465.291 20.2181C466.153 19.927 466.949 19.4674 467.632 18.866C468.764 17.5829 469.389 15.9301 469.389 14.2184C469.389 12.5066 468.764 10.8538 467.632 9.57074C466.949 8.96933 466.153 8.50974 465.291 8.21863C464.429 7.92752 463.518 7.81072 462.611 7.87501H446.293V20.5366L462.611 20.5618Z" fill="white"/>
<path d="M532.535 43.9885L528.644 34.6304H508.246L504.355 43.9885H495.066L513.38 0.0244141H523.56L541.887 43.9885H532.535ZM525.506 26.8174L518.539 10.2618H518.288L511.385 26.8174H525.506Z" fill="white"/>
<path d="M606.018 7.97634H589.135V0H631.625V7.97634H614.742V43.9641H605.955L606.018 7.97634Z" fill="white"/>
<path d="M681.026 43.9885L677.134 34.6304H656.737L652.845 43.9885H643.557L661.883 0.0244141H672.001L690.314 43.9885H681.026ZM673.996 26.8425L667.03 10.2618H666.779L659.875 26.8425H673.996Z" fill="white"/>
<path d="M710.516 0.0249023H719.302V35.8242H746.353V43.989H710.578L710.516 0.0249023Z" fill="white"/>
<path d="M801.203 43.989L797.312 34.6309H776.914L773.023 43.989H763.734L782.061 0.0249023H792.103L810.43 43.989H801.203ZM794.174 26.8429L787.208 10.2622H786.956L780.053 26.8429H794.174Z" fill="white"/>
<path d="M830.709 0.0234375H839.496V35.8227H866.546V43.9875H830.772L830.709 0.0234375Z" fill="white"/>
<path d="M921.405 43.9875L917.513 34.6294H897.116L893.224 43.9875H883.936L902.262 0.0234375H912.304L930.631 43.9875H921.405ZM914.375 26.8415L907.409 10.2608H907.158L900.254 26.8415H914.375Z" fill="white"/>
<path d="M956.923 26.2772L937.969 0.0244141H948.199L961.253 18.1125L974.308 0.0244141H984.538L965.584 26.2772V43.9885H956.923V26.2772Z" fill="white"/>
<path d="M1013.4 9.23144L1012.46 7.05834H1007.91L1006.97 9.23144H1005.57L1009.54 0.0869141H1010.79L1014.76 9.23144H1013.4ZM1011.96 5.86506L1010.2 1.84547L1008.46 5.86506H1011.96Z" fill="white"/>
<path d="M1009.51 16.9329H1005.86V15.6768H1014.53V16.9329H1010.88V24.8464H1009.51V16.9329Z" fill="white"/>
<path d="M1016.13 24.9467C1016.01 24.9524 1015.9 24.9342 1015.79 24.8932C1015.68 24.8522 1015.58 24.7892 1015.49 24.708C1015.41 24.6309 1015.34 24.5355 1015.3 24.4289C1015.25 24.3224 1015.23 24.2074 1015.24 24.0925C1015.23 23.9778 1015.25 23.8634 1015.3 23.7571C1015.34 23.6509 1015.41 23.5553 1015.49 23.477C1015.67 23.3213 1015.9 23.2402 1016.13 23.2509C1016.36 23.2428 1016.58 23.324 1016.75 23.477C1016.83 23.5553 1016.9 23.6509 1016.94 23.7571C1016.98 23.8634 1017 23.9778 1017 24.0925C1017 24.2074 1016.99 24.3224 1016.94 24.4289C1016.9 24.5355 1016.83 24.6309 1016.75 24.708C1016.67 24.7879 1016.57 24.8502 1016.46 24.8913C1016.36 24.9323 1016.24 24.9512 1016.13 24.9467Z" fill="white"/>
</svg>
