<svg width="49" height="38" viewBox="0 0 49 38" fill="none" xmlns="http://www.w3.org/2000/svg">
<g clip-path="url(#clip0_15_6469)">
<path d="M8.88026 37.9166V35.3947C8.88026 34.43 8.29179 33.7983 7.28158 33.7983C6.77647 33.7983 6.22723 33.9648 5.84963 34.5132C5.5554 34.0529 5.13366 33.7983 4.50105 33.7983C4.07932 33.7983 3.65758 33.9256 3.32411 34.3859V33.8815H2.44141V37.9166H3.32411V35.6885C3.32411 34.9736 3.70171 34.6357 4.29019 34.6357C4.87866 34.6357 5.17289 35.0127 5.17289 35.6885V37.9166H6.0556V35.6885C6.0556 34.9736 6.47733 34.6357 7.02167 34.6357C7.61014 34.6357 7.90438 35.0127 7.90438 35.6885V37.9166H8.88026ZM21.9737 33.8815H20.5418V32.6622H19.6591V33.8815H18.8597V34.6797H19.6591V36.5308C19.6591 37.4563 20.0367 37.9998 21.0469 37.9998C21.4245 37.9998 21.8462 37.8725 22.1405 37.706L21.8855 36.947C21.6305 37.1135 21.3362 37.1576 21.1254 37.1576C20.7036 37.1576 20.5369 36.9029 20.5369 36.4867V34.6797H21.9688V33.8815H21.9737ZM29.4669 33.7934C28.9618 33.7934 28.6235 34.048 28.4126 34.381V33.8767H27.5299V37.9117H28.4126V35.6395C28.4126 34.9687 28.7068 34.5867 29.2561 34.5867C29.4228 34.5867 29.6337 34.6308 29.8053 34.67L30.0603 33.8277C29.8838 33.7934 29.6337 33.7934 29.4669 33.7934ZM18.1438 34.2145C17.722 33.9207 17.1336 33.7934 16.501 33.7934C15.4907 33.7934 14.8189 34.2978 14.8189 35.096C14.8189 35.7669 15.324 36.1488 16.2067 36.2712L16.6285 36.3153C17.0894 36.3986 17.3444 36.5259 17.3444 36.7364C17.3444 37.0303 17.0061 37.2408 16.4176 37.2408C15.8291 37.2408 15.3632 37.0303 15.069 36.8197L14.6473 37.4906C15.1082 37.8285 15.7408 37.995 16.3735 37.995C17.5504 37.995 18.2271 37.4465 18.2271 36.6924C18.2271 35.9774 17.6779 35.6004 16.8393 35.473L16.4176 35.429C16.04 35.3849 15.7458 35.3017 15.7458 35.0519C15.7458 34.7581 16.04 34.5916 16.5059 34.5916C17.011 34.5916 17.5161 34.8022 17.7711 34.9295L18.1438 34.2145ZM41.6287 33.7934C41.1236 33.7934 40.7852 34.048 40.5743 34.381V33.8767H39.6916V37.9117H40.5743V35.6395C40.5743 34.9687 40.8685 34.5867 41.4178 34.5867C41.5845 34.5867 41.7954 34.6308 41.967 34.67L42.222 33.8375C42.0504 33.7934 41.8003 33.7934 41.6287 33.7934ZM30.3496 35.8991C30.3496 37.1184 31.1931 37.9998 32.4976 37.9998C33.086 37.9998 33.5078 37.8725 33.9295 37.5395L33.5078 36.8246C33.1694 37.0792 32.8359 37.2017 32.4534 37.2017C31.7374 37.2017 31.2323 36.6973 31.2323 35.8991C31.2323 35.1401 31.7374 34.6357 32.4534 34.5965C32.831 34.5965 33.1694 34.7238 33.5078 34.9736L33.9295 34.2586C33.5078 33.9207 33.086 33.7983 32.4976 33.7983C31.1931 33.7934 30.3496 34.6797 30.3496 35.8991ZM38.5147 35.8991V33.8815H37.632V34.3859C37.3377 34.0089 36.916 33.7983 36.3667 33.7983C35.229 33.7983 34.3463 34.6797 34.3463 35.8991C34.3463 37.1184 35.229 37.9998 36.3667 37.9998C36.9552 37.9998 37.377 37.7893 37.632 37.4122V37.9166H38.5147V35.8991ZM35.2732 35.8991C35.2732 35.1841 35.7341 34.5965 36.4942 34.5965C37.2102 34.5965 37.7153 35.1449 37.7153 35.8991C37.7153 36.614 37.2102 37.2017 36.4942 37.2017C35.739 37.1576 35.2732 36.6091 35.2732 35.8991ZM24.7101 33.7934C23.5332 33.7934 22.6897 34.6357 22.6897 35.8942C22.6897 37.1576 23.5332 37.995 24.7543 37.995C25.3427 37.995 25.9312 37.8285 26.3971 37.4465L25.9753 36.8148C25.637 37.0694 25.2152 37.2359 24.7984 37.2359C24.2492 37.2359 23.7048 36.9813 23.5773 36.2712H26.5638C26.5638 36.1439 26.5638 36.0607 26.5638 35.9334C26.603 34.6357 25.8429 33.7934 24.7101 33.7934ZM24.7101 34.5524C25.2594 34.5524 25.637 34.8903 25.7203 35.5171H23.6165C23.6999 34.9736 24.0775 34.5524 24.7101 34.5524ZM46.6405 35.8991V32.2852H45.7578V34.3859C45.4635 34.0089 45.0418 33.7983 44.4925 33.7983C43.3548 33.7983 42.4721 34.6797 42.4721 35.8991C42.4721 37.1184 43.3548 37.9998 44.4925 37.9998C45.081 37.9998 45.5028 37.7893 45.7578 37.4122V37.9166H46.6405V35.8991ZM43.399 35.8991C43.399 35.1841 43.8599 34.5965 44.62 34.5965C45.336 34.5965 45.8411 35.1449 45.8411 35.8991C45.8411 36.614 45.336 37.2017 44.62 37.2017C43.8599 37.1576 43.399 36.6091 43.399 35.8991ZM13.8479 35.8991V33.8815H12.9652V34.3859C12.671 34.0089 12.2493 33.7983 11.7 33.7983C10.5623 33.7983 9.6796 34.6797 9.6796 35.8991C9.6796 37.1184 10.5623 37.9998 11.7 37.9998C12.2885 37.9998 12.7102 37.7893 12.9652 37.4122V37.9166H13.8479V35.8991ZM10.5672 35.8991C10.5672 35.1841 11.0282 34.5965 11.7883 34.5965C12.5043 34.5965 13.0094 35.1449 13.0094 35.8991C13.0094 36.614 12.5043 37.2017 11.7883 37.2017C11.0282 37.1576 10.5672 36.6091 10.5672 35.8991Z" fill="#757575"/>
<path d="M31.1098 3.23633H17.8496V27.0255H31.1098V3.23633Z" fill="#949494"/>
<path d="M18.733 15.1314C18.733 10.2982 21.0084 6.0085 24.5 3.23686C21.9303 1.21933 18.6889 0 15.1531 0C6.77722 0 0 6.76753 0 15.1314C0 23.4954 6.77722 30.2629 15.1531 30.2629C18.6889 30.2629 21.9303 29.0436 24.5 27.026C21.0035 24.2936 18.733 19.9647 18.733 15.1314Z" fill="#757575"/>
<path d="M49 15.1314C49 23.4954 42.2228 30.2629 33.8469 30.2629C30.3111 30.2629 27.0697 29.0436 24.5 27.026C28.0357 24.2495 30.267 19.9647 30.267 15.1314C30.267 10.2982 27.9916 6.0085 24.5 3.23686C27.0648 1.21933 30.3062 0 33.842 0C42.2228 0 49 6.8116 49 15.1314Z" fill="#B0B0B0"/>
</g>
<defs>
<clipPath id="clip0_15_6469">
<rect width="49" height="38" fill="white"/>
</clipPath>
</defs>
</svg>
