<svg width="63" height="21" viewBox="0 0 63 21" fill="none" xmlns="http://www.w3.org/2000/svg">
<path fill-rule="evenodd" clip-rule="evenodd" d="M6.27968 2.27826C6.83787 2.27497 8.49677 2.12766 9.19945 4.4658C9.67279 6.0408 10.4268 8.62073 11.4614 12.2056H11.8828C12.9924 8.42618 13.7546 5.84625 14.1695 4.4658C14.8795 2.1033 16.6545 2.2783 17.3645 2.2783L22.8423 2.27831V19.0783H17.2591V9.17777H16.8847L13.7724 19.0783H9.57181L6.45949 9.17044H6.0851V19.0783H0.501953V2.27831L6.27968 2.27826ZM30.8596 2.27831V12.1862H31.3049L35.0908 4.03901C35.8257 2.4177 37.392 2.27831 37.392 2.27831H42.7948V19.0783H37.0951V9.17044H36.6497L32.9381 17.3176C32.2032 18.9316 30.5626 19.0783 30.5626 19.0783H25.1598V2.27831H30.8596ZM62.4957 10.2618C61.7006 12.483 59.2038 14.0738 56.4396 14.0738H50.4623V19.0783H45.0421V10.2618H62.4957Z" fill="#757575"/>
<path fill-rule="evenodd" clip-rule="evenodd" d="M56.701 2.27734H44.7579C45.0422 6.01759 48.3092 9.21949 51.6912 9.21949H62.8723C63.5176 6.1109 61.2963 2.27734 56.701 2.27734Z" fill="#B0B0B0"/>
</svg>
