<svg width="91" height="90" viewBox="0 0 91 90" fill="none" xmlns="http://www.w3.org/2000/svg">
<path d="M45.9998 45.021L30.0024 17.2708C21.4476 17.1423 14.8602 19.7975 13.6198 24.6367C11.7805 31.3601 21.2765 39.7536 34.7503 43.3937C38.6428 44.4215 42.4924 44.9781 45.9998 45.021ZM45.9998 45.021L61.9974 17.2708M45.9998 45.021C49.5073 44.9781 53.357 44.4215 57.2495 43.3937C70.7233 39.7536 80.2193 31.3601 78.38 24.6367C77.1396 19.7975 70.5522 17.1423 61.9974 17.2708M61.9974 17.2708L46 45.0211M61.9974 17.2708C57.8483 9.77652 52.2448 5.40876 47.4113 6.73632C40.6958 8.53495 38.1723 20.9541 41.7653 34.4438C42.8346 38.3409 44.2891 41.9378 46 45.0211M45.9998 44.9785L30.0024 72.7286C21.4476 72.8999 14.8602 70.2019 13.6198 65.3627C11.7805 58.6393 21.2765 50.2458 34.7503 46.6057C38.6428 45.5779 42.4924 45.0213 45.9998 44.9785ZM45.9998 44.9785L61.9974 72.7286M45.9998 44.9785C49.5073 45.0213 53.357 45.5779 57.2495 46.6057C70.7233 50.2458 80.2193 58.6393 78.38 65.3627C77.1396 70.2019 70.5522 72.8999 61.9974 72.7286M45.9998 44.9785C44.2889 48.0618 42.8346 51.6592 41.7653 55.5562C38.1723 69.0459 40.6958 81.4651 47.4113 83.2637C52.2448 84.5913 57.8483 80.2229 61.9974 72.7286M14.0051 45.0211H46M14.0051 45.0211C9.59938 52.3441 8.61541 59.4105 12.1229 62.9221C17.0419 67.8469 29.0615 63.864 38.9423 53.9716C41.8082 51.1024 44.2035 48.0188 46 45.0211M14.0051 45.0211C9.59938 37.6553 8.61541 30.5894 12.1229 27.1206C17.0419 22.1958 29.0615 26.1786 38.9423 36.0711C41.8082 38.9403 44.2035 42.0234 46 45.0211M46 45.0211L30.0027 17.271C34.1518 9.77669 39.7552 5.40876 44.5459 6.73632C51.2614 8.53495 53.785 20.9541 50.192 34.4438C49.1654 38.3409 47.711 41.9378 46 45.0211ZM46 45.0211L77.9949 45.0212M46 45.0211C47.7965 42.0234 50.1918 38.9403 53.0577 36.0711C62.9385 26.1786 74.9581 22.1958 79.8771 27.1206C83.3846 30.5894 82.4006 37.6553 77.9949 45.0212M46 45.0211C47.7965 48.0188 50.1918 51.1024 53.0577 53.9716C62.9385 63.864 74.9581 67.8469 79.8771 62.9221C83.3846 59.4105 82.4006 52.3441 77.9949 45.0212M30.0027 72.7286L46.0002 44.9785C47.7111 48.0618 49.1654 51.6592 50.192 55.5562C53.785 69.0459 51.2614 81.4651 44.5459 83.2637C39.7552 84.5913 34.1518 80.2229 30.0027 72.7286Z" stroke="black" stroke-miterlimit="10"/>
</svg>
