<svg width="27" height="13" viewBox="0 0 27 13" fill="none" xmlns="http://www.w3.org/2000/svg">
<path d="M2.44531 11.8672C2.26302 12.0391 2.03385 12.125 1.75781 12.125C1.48177 12.125 1.2526 12.0391 1.07031 11.8672C0.888021 11.6953 0.796875 11.474 0.796875 11.2031C0.796875 10.9323 0.888021 10.7109 1.07031 10.5391C1.2526 10.362 1.48177 10.2734 1.75781 10.2734C2.03385 10.2734 2.26302 10.362 2.44531 10.5391C2.6276 10.7109 2.71875 10.9323 2.71875 11.2031C2.71875 11.474 2.6276 11.6953 2.44531 11.8672ZM8.25 12V2.04688H3.67188V0.796875H14.2031V2.04688H9.625V12H8.25ZM21.0781 12.1953C20.2708 12.1953 19.5182 12.0495 18.8203 11.7578C18.1224 11.4661 17.526 11.0677 17.0312 10.5625C16.5365 10.0521 16.1484 9.4375 15.8672 8.71875C15.5859 8 15.4453 7.22656 15.4453 6.39844C15.4453 5.29427 15.6849 4.30208 16.1641 3.42188C16.6484 2.53646 17.3203 1.84635 18.1797 1.35156C19.0391 0.856771 20.0052 0.609375 21.0781 0.609375C22.3646 0.609375 23.4714 0.963542 24.3984 1.67188C25.3307 2.375 25.9844 3.32292 26.3594 4.51562H24.9219C24.5781 3.67708 24.0781 3.02604 23.4219 2.5625C22.7708 2.09375 21.9896 1.85938 21.0781 1.85938C19.8438 1.85938 18.8255 2.28646 18.0234 3.14062C17.2214 3.98958 16.8203 5.07552 16.8203 6.39844C16.8203 7.72656 17.224 8.81771 18.0312 9.67188C18.8385 10.5208 19.875 10.9453 21.1406 10.9453C22.2396 10.9453 23.151 10.6198 23.875 9.96875C24.6042 9.3125 25.026 8.45312 25.1406 7.39062H20.8516V6.14062H26.4531V12H25.2109V10.0781H25.1406C24.7552 10.776 24.2031 11.3047 23.4844 11.6641C22.7708 12.0182 21.9688 12.1953 21.0781 12.1953Z" fill="#010101"/>
</svg>
