<svg width="24" height="24" viewBox="0 0 24 24" fill="none" xmlns="http://www.w3.org/2000/svg">
<circle cx="11.9981" cy="9.04207" r="4.20672" stroke="#010101" stroke-width="1.2"/>
<mask id="path-2-inside-1_9_5404" fill="white">
<path fill-rule="evenodd" clip-rule="evenodd" d="M18.6206 19.8153C18.5381 19.2991 18.3952 18.7931 18.1943 18.3079C17.8573 17.4943 17.3633 16.755 16.7406 16.1323C16.1179 15.5096 15.3787 15.0157 14.5651 14.6787C13.7515 14.3417 12.8795 14.1682 11.9988 14.1682C11.1182 14.1682 10.2462 14.3417 9.43261 14.6787C8.61901 15.0157 7.87976 15.5096 7.25706 16.1323C6.63436 16.755 6.14041 17.4943 5.80341 18.3079C5.60243 18.7931 5.45961 19.2991 5.37707 19.8153L18.6206 19.8153ZM19.691 19.8153C19.6008 19.1596 19.4269 18.5168 19.1725 17.9027C18.7823 16.9606 18.2103 16.1046 17.4893 15.3836C16.7683 14.6626 15.9123 14.0906 14.9703 13.7004C14.0282 13.3102 13.0185 13.1094 11.9988 13.1094C10.9792 13.1094 9.96947 13.3102 9.02741 13.7004C8.08536 14.0906 7.22938 14.6626 6.50836 15.3836C5.78734 16.1046 5.2154 16.9606 4.82518 17.9027C4.57081 18.5168 4.39691 19.1596 4.30666 19.8153C4.25847 20.1654 4.23413 20.5191 4.23413 20.8741L19.7635 20.8741C19.7635 20.5191 19.7392 20.1654 19.691 19.8153Z"/>
</mask>
<path fill-rule="evenodd" clip-rule="evenodd" d="M18.6206 19.8153C18.5381 19.2991 18.3952 18.7931 18.1943 18.3079C17.8573 17.4943 17.3633 16.755 16.7406 16.1323C16.1179 15.5096 15.3787 15.0157 14.5651 14.6787C13.7515 14.3417 12.8795 14.1682 11.9988 14.1682C11.1182 14.1682 10.2462 14.3417 9.43261 14.6787C8.61901 15.0157 7.87976 15.5096 7.25706 16.1323C6.63436 16.755 6.14041 17.4943 5.80341 18.3079C5.60243 18.7931 5.45961 19.2991 5.37707 19.8153L18.6206 19.8153ZM19.691 19.8153C19.6008 19.1596 19.4269 18.5168 19.1725 17.9027C18.7823 16.9606 18.2103 16.1046 17.4893 15.3836C16.7683 14.6626 15.9123 14.0906 14.9703 13.7004C14.0282 13.3102 13.0185 13.1094 11.9988 13.1094C10.9792 13.1094 9.96947 13.3102 9.02741 13.7004C8.08536 14.0906 7.22938 14.6626 6.50836 15.3836C5.78734 16.1046 5.2154 16.9606 4.82518 17.9027C4.57081 18.5168 4.39691 19.1596 4.30666 19.8153C4.25847 20.1654 4.23413 20.5191 4.23413 20.8741L19.7635 20.8741C19.7635 20.5191 19.7392 20.1654 19.691 19.8153Z" fill="#010101"/>
<path d="M18.1943 18.3079L17.0856 18.7671L17.0856 18.7671L18.1943 18.3079ZM18.6206 19.8153V21.0153L20.0277 21.0153L19.8055 19.6258L18.6206 19.8153ZM16.7406 16.1323L15.8921 16.9808V16.9808L16.7406 16.1323ZM9.43261 14.6787L8.97339 13.57L8.97339 13.57L9.43261 14.6787ZM7.25706 16.1323L6.40853 15.2838L6.40853 15.2838L7.25706 16.1323ZM5.80341 18.3079L6.91206 18.7671H6.91206L5.80341 18.3079ZM5.37707 19.8153L4.19213 19.6258L3.96995 21.0153H5.37707L5.37707 19.8153ZM19.691 19.8153L20.8798 19.6516L19.691 19.8153ZM19.1725 17.9027L18.0638 18.3619V18.3619L19.1725 17.9027ZM17.4893 15.3836L18.3378 14.5351L18.3378 14.5351L17.4893 15.3836ZM14.9703 13.7004L14.511 14.8091L14.511 14.8091L14.9703 13.7004ZM9.02741 13.7004L9.48663 14.8091L9.02741 13.7004ZM6.50836 15.3836L5.65983 14.5351L5.65983 14.5351L6.50836 15.3836ZM4.82518 17.9027L3.71653 17.4434H3.71653L4.82518 17.9027ZM4.30666 19.8153L5.49545 19.9789L4.30666 19.8153ZM4.23413 20.8741H3.03413V22.0741H4.23413L4.23413 20.8741ZM19.7635 20.8741V22.0741H20.9635V20.8741H19.7635ZM17.0856 18.7671C17.2506 19.1655 17.3679 19.5809 17.4357 20.0047L19.8055 19.6258C19.7082 19.0172 19.5399 18.4207 19.3029 17.8486L17.0856 18.7671ZM15.8921 16.9808C16.4034 17.4921 16.8089 18.0991 17.0856 18.7671L19.3029 17.8486C18.9056 16.8894 18.3233 16.0179 17.5891 15.2838L15.8921 16.9808ZM14.1058 15.7873C14.7739 16.064 15.3808 16.4696 15.8921 16.9808L17.5891 15.2838C16.855 14.5496 15.9835 13.9673 15.0243 13.57L14.1058 15.7873ZM11.9988 15.3682C12.7219 15.3682 13.4378 15.5106 14.1058 15.7873L15.0243 13.57C14.0651 13.1727 13.0371 12.9682 11.9988 12.9682V15.3682ZM9.89183 15.7873C10.5598 15.5106 11.2758 15.3682 11.9988 15.3682V12.9682C10.9606 12.9682 9.93257 13.1727 8.97339 13.57L9.89183 15.7873ZM8.10559 16.9808C8.61686 16.4696 9.22382 16.064 9.89183 15.7873L8.97339 13.57C8.0142 13.9673 7.14266 14.5496 6.40853 15.2838L8.10559 16.9808ZM6.91206 18.7671C7.18876 18.0991 7.59432 17.4921 8.10559 16.9808L6.40853 15.2838C5.6744 16.0179 5.09206 16.8894 4.69475 17.8486L6.91206 18.7671ZM6.56202 20.0047C6.62979 19.5809 6.74705 19.1655 6.91206 18.7671L4.69475 17.8486C4.45781 18.4207 4.28944 19.0172 4.19213 19.6258L6.56202 20.0047ZM20.8798 19.6516C20.7756 18.8947 20.5748 18.1525 20.2811 17.4434L18.0638 18.3619C18.2789 18.8811 18.4259 19.4246 18.5022 19.9789L20.8798 19.6516ZM20.2811 17.4434C19.8306 16.3558 19.1703 15.3675 18.3378 14.5351L16.6408 16.2321C17.2504 16.8417 17.7339 17.5654 18.0638 18.3619L20.2811 17.4434ZM18.3378 14.5351C17.5054 13.7026 16.5171 13.0423 15.4295 12.5918L14.511 14.8091C15.3075 15.139 16.0312 15.6225 16.6408 16.2321L18.3378 14.5351ZM15.4295 12.5918C14.3418 12.1413 13.1761 11.9094 11.9988 11.9094V14.3094C12.8609 14.3094 13.7146 14.4792 14.511 14.8091L15.4295 12.5918ZM11.9988 11.9094C10.8216 11.9094 9.65584 12.1413 8.56819 12.5918L9.48663 14.8091C10.2831 14.4792 11.1367 14.3094 11.9988 14.3094V11.9094ZM8.56819 12.5918C7.48054 13.0423 6.49228 13.7026 5.65983 14.5351L7.35689 16.2321C7.96648 15.6225 8.69017 15.139 9.48663 14.8091L8.56819 12.5918ZM5.65983 14.5351C4.82738 15.3675 4.16705 16.3558 3.71653 17.4434L5.93384 18.3619C6.26375 17.5654 6.7473 16.8417 7.35689 16.2321L5.65983 14.5351ZM3.71653 17.4434C3.42284 18.1525 3.22207 18.8947 3.11787 19.6516L5.49545 19.9789C5.57175 19.4246 5.71878 18.8811 5.93384 18.3619L3.71653 17.4434ZM3.11787 19.6516C3.06223 20.0558 3.03413 20.4643 3.03413 20.8741H5.43413C5.43413 20.574 5.45471 20.2749 5.49545 19.9789L3.11787 19.6516ZM20.9635 20.8741C20.9635 20.4643 20.9354 20.0558 20.8798 19.6516L18.5022 19.9789C18.543 20.2749 18.5635 20.574 18.5635 20.8741H20.9635ZM18.6206 18.6153L5.37707 18.6153L5.37707 21.0153L18.6206 21.0153L18.6206 18.6153ZM4.23413 22.0741L19.7635 22.0741V19.6741L4.23413 19.6741L4.23413 22.0741Z" fill="#010101" mask="url(#path-2-inside-1_9_5404)"/>
</svg>
