<svg width="52" height="17" viewBox="0 0 52 17" fill="none" xmlns="http://www.w3.org/2000/svg">
<g clip-path="url(#clip0_15_6461)">
<path d="M33.861 0.0273438C30.1725 0.0273438 26.8763 1.95236 26.8763 5.50896C26.8763 9.58772 32.7223 9.86944 32.7223 11.9185C32.7223 12.7813 31.7403 13.5536 30.0632 13.5536C27.683 13.5536 25.904 12.4744 25.904 12.4744L25.1428 16.0634C25.1428 16.0634 27.1921 16.975 29.9129 16.975C33.9457 16.975 37.1189 14.9555 37.1189 11.338C37.1189 7.02809 31.2486 6.75475 31.2486 4.85288C31.2486 4.17703 32.0547 3.43649 33.727 3.43649C35.614 3.43649 37.1534 4.22133 37.1534 4.22133L37.8984 0.754956C37.8984 0.754956 36.2233 0.0273438 33.861 0.0273438ZM0.114704 0.288958L0.0253906 0.812184C0.0253906 0.812184 1.57715 1.09814 2.97477 1.66856C4.77431 2.32266 4.9025 2.70344 5.20558 3.88614L8.50815 16.7052H12.9353L19.7556 0.288958H15.3386L10.9561 11.4504L9.16785 1.98944C9.00385 0.90664 8.17312 0.288958 7.15626 0.288958H0.114704ZM21.5317 0.288958L18.0667 16.7052H22.2787L25.7314 0.288958H21.5317ZM45.0232 0.288958C44.0075 0.288958 43.4694 0.83647 43.0745 1.79323L36.9038 16.7052H41.3207L42.1753 14.2199H47.5564L48.0761 16.7052H51.9734L48.5734 0.288958H45.0232ZM45.5976 4.72412L46.9069 10.8843H43.3993L45.5976 4.72412Z" fill="#757575"/>
</g>
<defs>
<clipPath id="clip0_15_6461">
<rect width="52" height="17" fill="white"/>
</clipPath>
</defs>
</svg>
