<svg width="32" height="16" viewBox="0 0 32 15" fill="none" xmlns="http://www.w3.org/2000/svg">
<path d="M2.55664 13.834C2.32878 14.0488 2.04232 14.1562 1.69727 14.1562C1.35221 14.1562 1.06576 14.0488 0.837891 13.834C0.610026 13.6191 0.496094 13.3424 0.496094 13.0039C0.496094 12.6654 0.610026 12.3887 0.837891 12.1738C1.06576 11.9525 1.35221 11.8418 1.69727 11.8418C2.04232 11.8418 2.32878 11.9525 2.55664 12.1738C2.78451 12.3887 2.89844 12.6654 2.89844 13.0039C2.89844 13.3424 2.78451 13.6191 2.55664 13.834ZM9.16797 14L3.2793 -0.00390625H5.125L10.0078 11.7246H10.0859L14.959 -0.00390625H16.8047L10.9258 14H9.16797ZM19.5684 14V-0.00390625H21.2871V5.92383H23.3867L28.9922 -0.00390625H31.209L24.8125 6.76367L31.3262 14H29.0312L23.1914 7.47656H21.2871V14H19.5684Z" fill="#010101"/>
</svg>
