<svg width="80" height="29" viewBox="0 0 80 29" fill="none" xmlns="http://www.w3.org/2000/svg">
<path d="M3.84375 28.3516C2.95833 28.3516 2.23568 28.0911 1.67578 27.5703C1.11589 27.0365 0.835938 26.3268 0.835938 25.4414C0.835938 24.569 1.11589 23.8724 1.67578 23.3516C2.23568 22.8177 2.95833 22.5508 3.84375 22.5508C4.74219 22.5508 5.46484 22.8177 6.01172 23.3516C6.55859 23.8724 6.83203 24.569 6.83203 25.4414C6.83203 26.3398 6.55859 27.0495 6.01172 27.5703C5.46484 28.0911 4.74219 28.3516 3.84375 28.3516ZM54.1086 -0.0078125L43.9914 28H38.4641L30.9445 6.59375H30.7883L23.2688 28H17.7023L7.62422 -0.0078125H12.6633L20.4367 21.6719H20.593L28.1906 -0.0078125H33.5422L41.1398 21.6719H41.3156L49.0695 -0.0078125H54.1086ZM79.3734 28H74.2562L71.5609 21.7109H58.0844L55.4086 28H50.2914L62.2055 -0.0078125H67.4398L79.3734 28ZM59.8422 17.3945H69.8031L64.9203 5.96875H64.7641L59.8422 17.3945Z" fill="#010101"/>
</svg>
