<svg width="33" height="13" viewBox="0 0 33 13" fill="none" xmlns="http://www.w3.org/2000/svg">
<path d="M2.44531 11.8672C2.26302 12.0391 2.03385 12.125 1.75781 12.125C1.48177 12.125 1.2526 12.0391 1.07031 11.8672C0.888021 11.6953 0.796875 11.474 0.796875 11.2031C0.796875 10.9323 0.888021 10.7109 1.07031 10.5391C1.2526 10.362 1.48177 10.2734 1.75781 10.2734C2.03385 10.2734 2.26302 10.362 2.44531 10.5391C2.6276 10.7109 2.71875 10.9323 2.71875 11.2031C2.71875 11.474 2.6276 11.6953 2.44531 11.8672ZM21.9062 0.796875L17.75 12H16.2734L12.8203 2.6875H12.7578L9.29688 12H7.82812L3.66406 0.796875H5.10938L8.53125 10.1094H8.59375L12.0547 0.796875H13.5234L16.9766 10.1094H17.0469L20.4688 0.796875H21.9062ZM32.0469 12H30.6406L29.4062 9.21875H23.6172L22.3828 12H20.9766L25.9375 0.796875H27.0859L32.0469 12ZM24.1484 8H28.8828L26.5469 2.71875H26.4844L24.1484 8Z" fill="#010101"/>
</svg>
