<svg width="24" height="24" viewBox="0 0 24 24" fill="none" xmlns="http://www.w3.org/2000/svg">
<mask id="path-1-inside-1_9_5414" fill="white">
<path fill-rule="evenodd" clip-rule="evenodd" d="M8.25509 7.76455H15.7433C15.4483 5.9629 13.8843 4.58812 11.9992 4.58812C10.1141 4.58812 8.55008 5.9629 8.25509 7.76455ZM7.18518 7.76455C7.4886 5.37601 9.52823 3.5293 11.9992 3.5293C14.4701 3.5293 16.5098 5.37601 16.8132 7.76455H18.3526C19.5221 7.76455 20.4702 8.71265 20.4702 9.8822V18.3528C20.4702 19.5223 19.5221 20.4704 18.3526 20.4704H5.6467C4.47716 20.4704 3.52905 19.5223 3.52905 18.3528V9.8822C3.52905 8.71266 4.47716 7.76455 5.6467 7.76455H7.18518Z"/>
</mask>
<path d="M8.25509 7.76455L7.21018 7.59347L7.00881 8.82337H8.25509V7.76455ZM15.7433 7.76455V8.82337H16.9896L16.7882 7.59347L15.7433 7.76455ZM7.18518 7.76455V8.82337H8.11801L8.23556 7.89798L7.18518 7.76455ZM16.8132 7.76455L15.7628 7.89798L15.8804 8.82337H16.8132V7.76455ZM8.25509 8.82337H15.7433V6.70573H8.25509V8.82337ZM16.7882 7.59347C16.4107 5.2882 14.4114 3.5293 11.9992 3.5293V5.64694C13.3572 5.64694 14.4858 6.63761 14.6984 7.93563L16.7882 7.59347ZM11.9992 3.5293C9.58698 3.5293 7.58763 5.2882 7.21018 7.59347L9.3 7.93563C9.51253 6.63761 10.6412 5.64694 11.9992 5.64694V3.5293ZM11.9992 2.47047C8.9883 2.47047 6.50455 4.72037 6.1348 7.63112L8.23556 7.89798C8.47264 6.03165 10.0682 4.58812 11.9992 4.58812V2.47047ZM17.8636 7.63112C17.4938 4.72037 15.0101 2.47047 11.9992 2.47047V4.58812C13.9302 4.58812 15.5257 6.03165 15.7628 7.89798L17.8636 7.63112ZM16.8132 8.82337H18.3526V6.70573H16.8132V8.82337ZM18.3526 8.82337C18.9374 8.82337 19.4114 9.29743 19.4114 9.8822H21.5291C21.5291 8.12788 20.1069 6.70573 18.3526 6.70573V8.82337ZM19.4114 9.8822V18.3528H21.5291V9.8822H19.4114ZM19.4114 18.3528C19.4114 18.9376 18.9374 19.4116 18.3526 19.4116V21.5293C20.1069 21.5293 21.5291 20.1071 21.5291 18.3528H19.4114ZM18.3526 19.4116H5.6467V21.5293H18.3526V19.4116ZM5.6467 19.4116C5.06193 19.4116 4.58788 18.9376 4.58788 18.3528H2.47023C2.47023 20.1071 3.89238 21.5293 5.6467 21.5293V19.4116ZM4.58788 18.3528V9.8822H2.47023V18.3528H4.58788ZM4.58788 9.8822C4.58788 9.29743 5.06193 8.82337 5.6467 8.82337V6.70573C3.89238 6.70573 2.47023 8.12788 2.47023 9.8822H4.58788ZM5.6467 8.82337H7.18518V6.70573H5.6467V8.82337Z" fill="#010101" mask="url(#path-1-inside-1_9_5414)"/>
</svg>
